
<svg 
 width="200.000000pt" height="200.000000pt" viewBox="0 0 200.000000 200.000000"
 preserveAspectRatio="xMidYMid meet">
<g transform="translate(0.000000,200.000000) scale(0.100000,-0.100000)"
fill="#000000" stroke="none">
<path d="M794 1716 c-3 -7 -4 -33 -2 -57 l3 -44 205 0 205 0 0 55 0 55 -203 3
c-167 2 -203 0 -208 -12z"/>
<path d="M730 1515 c0 -54 0 -55 30 -55 28 0 30 -2 30 -39 0 -32 -4 -40 -23
-45 -46 -11 -164 -105 -212 -168 -85 -112 -116 -206 -116 -354 0 -253 171
-475 417 -539 75 -19 213 -19 288 0 188 49 343 202 400 394 10 34 16 92 16
152 0 201 -84 360 -247 469 -41 28 -81 50 -89 50 -10 0 -14 12 -14 40 0 38 2
40 30 40 30 0 30 1 30 55 l0 55 -270 0 -270 0 0 -55z m-69 -611 c103 -77 154
-98 240 -102 95 -5 152 11 313 85 143 66 174 73 200 44 16 -17 18 -32 14 -103
-8 -155 -99 -288 -243 -359 -67 -33 -74 -34 -185 -34 -111 0 -118 1 -185 34
-89 44 -162 116 -205 205 -29 58 -35 82 -38 157 -4 89 0 119 17 119 5 0 37
-21 72 -46z"/>
</g>
</svg>
